<svg id="visual" viewBox="0 0 1920 1080" width="1920" height="1080" xmlns="http://www.w3.org/2000/svg" xmlns:xlink="http://www.w3.org/1999/xlink" version="1.1"><rect x="0" y="0" width="1920" height="1080" fill="#fff"></rect><path d="M0 822L45.7 833.2C91.3 844.3 182.7 866.7 274.2 873.3C365.7 880 457.3 871 548.8 871.3C640.3 871.7 731.7 881.3 823 877.2C914.3 873 1005.7 855 1097 843C1188.3 831 1279.7 825 1371.2 828.2C1462.7 831.3 1554.3 843.7 1645.8 848.5C1737.3 853.3 1828.7 850.7 1874.3 849.3L1920 848L1920 1081L1874.3 1081C1828.7 1081 1737.3 1081 1645.8 1081C1554.3 1081 1462.7 1081 1371.2 1081C1279.7 1081 1188.3 1081 1097 1081C1005.7 1081 914.3 1081 823 1081C731.7 1081 640.3 1081 548.8 1081C457.3 1081 365.7 1081 274.2 1081C182.7 1081 91.3 1081 45.7 1081L0 1081Z" fill="#ed1c24"></path><path d="M0 862L45.7 861C91.3 860 182.7 858 274.2 870.2C365.7 882.3 457.3 908.7 548.8 910.3C640.3 912 731.7 889 823 875.2C914.3 861.3 1005.7 856.7 1097 859.2C1188.3 861.7 1279.7 871.3 1371.2 879.3C1462.7 887.3 1554.3 893.7 1645.8 890.5C1737.3 887.3 1828.7 874.7 1874.3 868.3L1920 862L1920 1081L1874.3 1081C1828.7 1081 1737.3 1081 1645.8 1081C1554.3 1081 1462.7 1081 1371.2 1081C1279.7 1081 1188.3 1081 1097 1081C1005.7 1081 914.3 1081 823 1081C731.7 1081 640.3 1081 548.8 1081C457.3 1081 365.7 1081 274.2 1081C182.7 1081 91.3 1081 45.7 1081L0 1081Z" fill="#c61c31"></path><path d="M0 945L45.7 945.5C91.3 946 182.7 947 274.2 950C365.7 953 457.3 958 548.8 948.3C640.3 938.7 731.7 914.3 823 906C914.3 897.7 1005.7 905.3 1097 914.2C1188.3 923 1279.7 933 1371.2 937.8C1462.7 942.7 1554.3 942.3 1645.8 938.8C1737.3 935.3 1828.7 928.7 1874.3 925.3L1920 922L1920 1081L1874.3 1081C1828.7 1081 1737.3 1081 1645.8 1081C1554.3 1081 1462.7 1081 1371.2 1081C1279.7 1081 1188.3 1081 1097 1081C1005.7 1081 914.3 1081 823 1081C731.7 1081 640.3 1081 548.8 1081C457.3 1081 365.7 1081 274.2 1081C182.7 1081 91.3 1081 45.7 1081L0 1081Z" fill="#9e2236"></path><path d="M0 982L45.7 983.8C91.3 985.7 182.7 989.3 274.2 989.8C365.7 990.3 457.3 987.7 548.8 984.5C640.3 981.3 731.7 977.7 823 972.7C914.3 967.7 1005.7 961.3 1097 953.8C1188.3 946.3 1279.7 937.7 1371.2 942C1462.7 946.3 1554.3 963.7 1645.8 969.8C1737.3 976 1828.7 971 1874.3 968.5L1920 966L1920 1081L1874.3 1081C1828.7 1081 1737.3 1081 1645.8 1081C1554.3 1081 1462.7 1081 1371.2 1081C1279.7 1081 1188.3 1081 1097 1081C1005.7 1081 914.3 1081 823 1081C731.7 1081 640.3 1081 548.8 1081C457.3 1081 365.7 1081 274.2 1081C182.7 1081 91.3 1081 45.7 1081L0 1081Z" fill="#742535"></path><path d="M0 972L45.7 973.5C91.3 975 182.7 978 274.2 981.2C365.7 984.3 457.3 987.7 548.8 988.7C640.3 989.7 731.7 988.3 823 989C914.3 989.7 1005.7 992.3 1097 995.2C1188.3 998 1279.7 1001 1371.2 1003C1462.7 1005 1554.3 1006 1645.8 1005.3C1737.3 1004.7 1828.7 1002.3 1874.3 1001.2L1920 1000L1920 1081L1874.3 1081C1828.7 1081 1737.3 1081 1645.8 1081C1554.3 1081 1462.7 1081 1371.2 1081C1279.7 1081 1188.3 1081 1097 1081C1005.7 1081 914.3 1081 823 1081C731.7 1081 640.3 1081 548.8 1081C457.3 1081 365.7 1081 274.2 1081C182.7 1081 91.3 1081 45.7 1081L0 1081Z" fill="#4b242d"></path><path d="M0 1038L45.7 1035.8C91.3 1033.7 182.7 1029.3 274.2 1030.3C365.7 1031.3 457.3 1037.7 548.8 1038.2C640.3 1038.7 731.7 1033.3 823 1028.3C914.3 1023.3 1005.7 1018.7 1097 1017.8C1188.3 1017 1279.7 1020 1371.2 1020.3C1462.7 1020.7 1554.3 1018.3 1645.8 1016.8C1737.3 1015.3 1828.7 1014.7 1874.3 1014.3L1920 1014L1920 1081L1874.3 1081C1828.7 1081 1737.3 1081 1645.8 1081C1554.3 1081 1462.7 1081 1371.2 1081C1279.7 1081 1188.3 1081 1097 1081C1005.7 1081 914.3 1081 823 1081C731.7 1081 640.3 1081 548.8 1081C457.3 1081 365.7 1081 274.2 1081C182.7 1081 91.3 1081 45.7 1081L0 1081Z" fill="#231f20"></path></svg>